<svg xmlns="http://www.w3.org/2000/svg" viewBox="0 0 128 128">
  <defs>
    <linearGradient id="steel" x1="0" y1="0" x2="0" y2="1"><stop offset="0" stop-color="#8d939c"/><stop offset=".5" stop-color="#4f545b"/><stop offset="1" stop-color="#34373c"/></linearGradient>
    <linearGradient id="dark" x1="0" y1="0" x2="0" y2="1"><stop offset="0" stop-color="#44484f"/><stop offset="1" stop-color="#1f2125"/></linearGradient>
    <linearGradient id="wood" x1="0" y1="0" x2="0" y2="1"><stop offset="0" stop-color="#a8683a"/><stop offset=".55" stop-color="#7d4824"/><stop offset="1" stop-color="#5e3419"/></linearGradient>
    <linearGradient id="brass" x1="0" x2="1"><stop offset="0" stop-color="#b8892f"/><stop offset=".5" stop-color="#f6da86"/><stop offset="1" stop-color="#a97a28"/></linearGradient>
    <linearGradient id="olive" x1="0" x2="1"><stop offset="0" stop-color="#4a5530"/><stop offset=".5" stop-color="#7a8a4a"/><stop offset="1" stop-color="#434c2a"/></linearGradient>
  </defs>
  <g transform="translate(0 8)">
    <path d="M96 48 L122 52 L122 70 L100 76 Z" fill="url(#wood)" stroke="#3e2210" stroke-width="2" stroke-linejoin="round"/>
    <rect x="4" y="42" width="60" height="20" rx="9" fill="url(#steel)" stroke="#202225" stroke-width="2.5"/>
    <ellipse cx="6" cy="52" rx="4" ry="9" fill="#101113" stroke="#202225" stroke-width="2"/>
    <rect x="58" y="40" width="42" height="28" rx="6" fill="url(#dark)" stroke="#121315" stroke-width="2"/>
    <circle cx="78" cy="54" r="11" fill="url(#olive)" stroke="#202225" stroke-width="2"/>
    <g stroke="#202225" stroke-width="2"><line x1="78" y1="43" x2="78" y2="65"/><line x1="67" y1="54" x2="89" y2="54"/></g>
    <rect x="30" y="62" width="18" height="12" rx="3" fill="url(#wood)" stroke="#3e2210" stroke-width="2"/>
    <path d="M70 68 V82 Q70 88 76 88 H84 Q88 88 88 82 V68" fill="none" stroke="#202225" stroke-width="3.5" stroke-linecap="round"/>
    <path d="M52 34 H68 V40 H52 Z" fill="#9aa0a9" stroke="#202225" stroke-width="2"/>
  </g>
</svg>
